<?xml version="1.0" standalone="no"?>
<!DOCTYPE svg PUBLIC "-//W3C//DTD SVG 20010904//EN"
 "http://www.w3.org/TR/2001/REC-SVG-20010904/DTD/svg10.dtd">
<svg version="1.0" xmlns="http://www.w3.org/2000/svg"
 width="319.000000pt" height="319.000000pt" viewBox="0 0 319.000000 319.000000"
 preserveAspectRatio="xMidYMid meet">

<g transform="translate(0.000000,319.000000) scale(0.100000,-0.100000)"
fill="#000000" stroke="none">
<path d="M386 3169 c-170 -40 -326 -197 -365 -369 -7 -30 -11 -445 -11 -1205
0 -949 3 -1169 14 -1211 46 -172 188 -314 361 -359 87 -22 2317 -23 2413 0 93
22 159 60 233 134 74 74 112 140 134 233 23 96 22 2326 0 2413 -35 132 -128
252 -246 314 -118 64 -53 61 -1329 60 -662 -1 -1182 -5 -1204 -10z m2156 -519
c71 -20 126 -116 113 -198 -31 -180 -178 -423 -464 -762 -135 -161 -530 -556
-691 -691 -521 -439 -831 -566 -940 -387 -43 71 -35 164 25 296 47 101 136
245 145 235 4 -4 32 -44 62 -88 l54 -80 -19 -30 c-23 -37 -83 -162 -92 -192
-6 -22 -5 -22 33 -9 21 8 63 26 93 41 58 30 239 144 239 152 0 2 -27 29 -61
60 -105 97 -184 226 -231 373 -20 65 -23 95 -23 230 1 149 2 159 33 250 43
124 98 215 185 306 116 123 243 197 406 236 71 17 108 19 216 16 113 -4 143
-9 225 -37 131 -44 220 -99 319 -198 46 -45 85 -83 86 -83 6 0 124 189 150
239 29 58 57 131 50 131 -15 0 -118 -47 -167 -76 -33 -18 -64 -34 -70 -34 -5
0 -44 23 -85 50 -41 28 -79 50 -84 50 -63 0 240 174 348 199 53 12 102 13 145
1z m-135 -1077 c-8 -193 -55 -326 -165 -472 -105 -138 -272 -251 -437 -296
-57 -16 -315 -34 -315 -22 0 3 60 56 133 118 170 145 521 496 666 667 62 72
115 132 118 132 3 0 3 -57 0 -127z"/>
</g>
</svg>
